# xmcd CD database file
#
# Track frame offsets:
#	150
#	19525
#	40725
#	57242
#	72682
#	90227
#	112032
#	131247
#	150202
#	171127
#	191117
#	211600
#	234185
#	254190
#
# Disc length: 3701 seconds
#
# Revision: 1
# Processed by: cddbd v1.5.2PL0 Copyright (c) Steve Scherf et al.
# Submitted via: CDex 1.70beta3
#
DISCID=ba0e730e
DTITLE=Josh Groban - Josh Groban
DYEAR=2002
DGENRE=New Age
TTITLE0=Alla Luce Del Sole
TTITLE1=Gira Con Me Questa Notte
TTITLE2=You're Still You
TTITLE3=Cinema Paradiso(Se)
TTITLE4=To Where You Are
TTITLE5=Alejate
TTITLE6=Canto Alla Vita
TTITLE7=Let Me Fall
TTITLE8=Vincent
TTITLE9=Un Amore Per Sempre
TTITLE10=Home To Stay
TTITLE11=Jesu,Joy Of Man's Desiring
TTITLE12=The Prayer
TTITLE13=Mia Per Sempre
EXTD=YEAR: 2002
EXTT0=
EXTT1=
EXTT2=
EXTT3=
EXTT4=
EXTT5=
EXTT6=
EXTT7=
EXTT8=
EXTT9=
EXTT10=
EXTT11=
EXTT12=
EXTT13=
PLAYORDER=
